<svg width="24" height="24" viewBox="0 0 24 24" fill="none" xmlns="http://www.w3.org/2000/svg">
<g id="Icon/Outline/bell-off">
<path id="Mask" fill-rule="evenodd" clip-rule="evenodd" d="M8.90043 5.17089C9.93843 4.26089 11.2614 3.86089 12.6374 4.04189C14.9644 4.35089 16.7194 6.45489 16.7194 8.93689V13.4039C16.7194 13.6059 16.7584 13.7999 16.8154 13.9869L20.4204 17.5909C20.6094 17.4279 20.7724 17.2329 20.8734 16.9909C21.1284 16.3779 20.9894 15.6769 20.5204 15.2079L18.7194 13.4039V8.93689C18.7194 5.45589 16.2174 2.49889 12.8994 2.05989C10.9754 1.80389 9.03943 2.39089 7.58343 3.66689C7.38843 3.83689 7.20743 4.01789 7.03543 4.20689L8.46743 5.63989C8.49857 5.6043 8.52927 5.56836 8.55997 5.53243L8.55997 5.53242C8.66725 5.40683 8.77447 5.2813 8.90043 5.17089ZM12 20C10.916 20 10 19.24 10 18.341V18H14V18.341C14 19.24 13.084 20 12 20ZM14.029 16.857L13.172 16H5.51503L6.69403 14.818C7.07203 14.44 7.28003 13.938 7.28003 13.404V10.108L5.31203 8.13999C5.29503 8.33499 5.28003 8.52999 5.28003 8.72699L5.27903 13.404L3.47903 15.208C3.01003 15.678 2.87103 16.377 3.12503 16.99C3.38003 17.604 3.97303 18 4.63703 18H8.00003V18.341C8.00003 20.359 9.79403 22 12 22C14.042 22 15.712 20.589 15.951 18.78L15.172 18L14.029 16.857ZM19.407 17.993L20.707 19.293C21.098 19.684 21.098 20.316 20.707 20.707C20.512 20.902 20.256 21 20 21C19.744 21 19.488 20.902 19.293 20.707L16.586 18L16 17.414L14.655 16.069L14.586 16L7.28303 8.69699L5.53103 6.94599L3.29303 4.70699C2.90203 4.31599 2.90203 3.68399 3.29303 3.29299C3.68403 2.90199 4.31603 2.90199 4.70703 3.29299L6.42003 5.00599L7.88603 6.47099L17.414 16L19.407 17.993Z" fill="black"/>
<mask id="mask0" mask-type="alpha" maskUnits="userSpaceOnUse" x="2" y="2" width="20" height="20">
<path id="Mask_2" fill-rule="evenodd" clip-rule="evenodd" d="M8.90043 5.17089C9.93843 4.26089 11.2614 3.86089 12.6374 4.04189C14.9644 4.35089 16.7194 6.45489 16.7194 8.93689V13.4039C16.7194 13.6059 16.7584 13.7999 16.8154 13.9869L20.4204 17.5909C20.6094 17.4279 20.7724 17.2329 20.8734 16.9909C21.1284 16.3779 20.9894 15.6769 20.5204 15.2079L18.7194 13.4039V8.93689C18.7194 5.45589 16.2174 2.49889 12.8994 2.05989C10.9754 1.80389 9.03943 2.39089 7.58343 3.66689C7.38843 3.83689 7.20743 4.01789 7.03543 4.20689L8.46743 5.63989C8.49857 5.6043 8.52927 5.56836 8.55997 5.53243L8.55997 5.53242C8.66725 5.40683 8.77447 5.2813 8.90043 5.17089ZM12 20C10.916 20 10 19.24 10 18.341V18H14V18.341C14 19.24 13.084 20 12 20ZM14.029 16.857L13.172 16H5.51503L6.69403 14.818C7.07203 14.44 7.28003 13.938 7.28003 13.404V10.108L5.31203 8.13999C5.29503 8.33499 5.28003 8.52999 5.28003 8.72699L5.27903 13.404L3.47903 15.208C3.01003 15.678 2.87103 16.377 3.12503 16.99C3.38003 17.604 3.97303 18 4.63703 18H8.00003V18.341C8.00003 20.359 9.79403 22 12 22C14.042 22 15.712 20.589 15.951 18.78L15.172 18L14.029 16.857ZM19.407 17.993L20.707 19.293C21.098 19.684 21.098 20.316 20.707 20.707C20.512 20.902 20.256 21 20 21C19.744 21 19.488 20.902 19.293 20.707L16.586 18L16 17.414L14.655 16.069L14.586 16L7.28303 8.69699L5.53103 6.94599L3.29303 4.70699C2.90203 4.31599 2.90203 3.68399 3.29303 3.29299C3.68403 2.90199 4.31603 2.90199 4.70703 3.29299L6.42003 5.00599L7.88603 6.47099L17.414 16L19.407 17.993Z" fill="white"/>
</mask>
<g mask="url(#mask0)">
<g id="&#240;&#159;&#142;&#168; Color">
<rect id="Base" width="24" height="24" fill="black"/>
</g>
</g>
</g>
</svg>
