<svg width="24" height="24" viewBox="0 0 24 24" fill="none" xmlns="http://www.w3.org/2000/svg">
<g id="Icon/Outline/tv">
<path id="Mask" fill-rule="evenodd" clip-rule="evenodd" d="M19 19C19 19.552 18.552 20 18 20H6C5.448 20 5 19.552 5 19V9C5 8.448 5.448 8 6 8H18C18.552 8 19 8.448 19 9V19ZM18 6H14.414L16.707 3.707C17.098 3.316 17.098 2.684 16.707 2.293C16.316 1.902 15.684 1.902 15.293 2.293L12 5.586L8.707 2.293C8.316 1.902 7.684 1.902 7.293 2.293C6.902 2.684 6.902 3.316 7.293 3.707L9.586 6H6C4.346 6 3 7.346 3 9V19C3 20.654 4.346 22 6 22H18C19.654 22 21 20.654 21 19V9C21 7.346 19.654 6 18 6Z" fill="black"/>
<mask id="mask0" mask-type="alpha" maskUnits="userSpaceOnUse" x="3" y="1" width="18" height="21">
<path id="Mask_2" fill-rule="evenodd" clip-rule="evenodd" d="M19 19C19 19.552 18.552 20 18 20H6C5.448 20 5 19.552 5 19V9C5 8.448 5.448 8 6 8H18C18.552 8 19 8.448 19 9V19ZM18 6H14.414L16.707 3.707C17.098 3.316 17.098 2.684 16.707 2.293C16.316 1.902 15.684 1.902 15.293 2.293L12 5.586L8.707 2.293C8.316 1.902 7.684 1.902 7.293 2.293C6.902 2.684 6.902 3.316 7.293 3.707L9.586 6H6C4.346 6 3 7.346 3 9V19C3 20.654 4.346 22 6 22H18C19.654 22 21 20.654 21 19V9C21 7.346 19.654 6 18 6Z" fill="white"/>
</mask>
<g mask="url(#mask0)">
<g id="&#240;&#159;&#142;&#168; Color">
<rect id="Base" width="24" height="24" fill="black"/>
</g>
</g>
</g>
</svg>
