<svg width="24" height="24" viewBox="0 0 24 24" fill="none" xmlns="http://www.w3.org/2000/svg">
<g id="Icon/Outline/undo">
<path id="Mask" fill-rule="evenodd" clip-rule="evenodd" d="M10.4541 11.5C14.0171 11.5 17.2311 13.134 19.2641 15.759C18.3291 11.89 14.7341 9.00001 10.4541 9.00001C9.90112 9.00001 9.45412 8.55301 9.45412 8.00001V6.07701L4.63012 10.251L9.45412 14.463V12.5C9.45412 11.947 9.90112 11.5 10.4541 11.5ZM20.2211 21C19.7601 21 19.3581 20.685 19.2491 20.237C18.3591 16.588 15.2281 13.952 11.4541 13.553V14.674C11.4541 15.38 11.0351 16.009 10.3611 16.314C9.63012 16.647 8.77712 16.527 8.18412 16.01L3.11812 11.586C2.72512 11.242 2.50012 10.755 2.50012 10.25C2.50012 9.74501 2.72512 9.25801 3.11812 8.91401L8.18412 4.49001C8.77712 3.97301 9.63012 3.85301 10.3611 4.18601C11.0351 4.49101 11.4541 5.12001 11.4541 5.82601V7.04401C17.0781 7.53701 21.5001 12.15 21.5001 17.75C21.5001 18.56 21.3961 19.396 21.1921 20.236C21.0841 20.685 20.6831 21 20.2211 21Z" fill="black"/>
<mask id="mask0" mask-type="alpha" maskUnits="userSpaceOnUse" x="2" y="3" width="20" height="18">
<path id="Mask_2" fill-rule="evenodd" clip-rule="evenodd" d="M10.4541 11.5C14.0171 11.5 17.2311 13.134 19.2641 15.759C18.3291 11.89 14.7341 9.00001 10.4541 9.00001C9.90112 9.00001 9.45412 8.55301 9.45412 8.00001V6.07701L4.63012 10.251L9.45412 14.463V12.5C9.45412 11.947 9.90112 11.5 10.4541 11.5ZM20.2211 21C19.7601 21 19.3581 20.685 19.2491 20.237C18.3591 16.588 15.2281 13.952 11.4541 13.553V14.674C11.4541 15.38 11.0351 16.009 10.3611 16.314C9.63012 16.647 8.77712 16.527 8.18412 16.01L3.11812 11.586C2.72512 11.242 2.50012 10.755 2.50012 10.25C2.50012 9.74501 2.72512 9.25801 3.11812 8.91401L8.18412 4.49001C8.77712 3.97301 9.63012 3.85301 10.3611 4.18601C11.0351 4.49101 11.4541 5.12001 11.4541 5.82601V7.04401C17.0781 7.53701 21.5001 12.15 21.5001 17.75C21.5001 18.56 21.3961 19.396 21.1921 20.236C21.0841 20.685 20.6831 21 20.2211 21Z" fill="white"/>
</mask>
<g mask="url(#mask0)">
<g id="&#240;&#159;&#142;&#168; Color">
<rect id="Base" width="24" height="24" fill="black"/>
</g>
</g>
</g>
</svg>
